<svg xmlns="http://www.w3.org/2000/svg" xmlns:xlink="http://www.w3.org/1999/xlink" width="500" zoomAndPan="magnify" viewBox="0 0 375 374.999991" height="500" preserveAspectRatio="xMidYMid meet" version="1.0"><defs><g/></defs><g fill="#4f1964" fill-opacity="1"><g transform="translate(81.18093, 266.694124)"><g><path d="M 3.808594 0 C 4.007812 0 4.109375 -0.101562 4.109375 -0.300781 L 4.109375 -3.867188 L 7.726562 -3.867188 C 7.917969 -3.867188 8.027344 -3.976562 8.027344 -4.167969 L 8.027344 -5.96875 C 8.027344 -6.167969 7.917969 -6.269531 7.726562 -6.269531 L 4.109375 -6.269531 L 4.109375 -8.699219 L 8.414062 -8.699219 C 8.613281 -8.699219 8.714844 -8.804688 8.714844 -9 L 8.714844 -10.949219 C 8.714844 -11.148438 8.613281 -11.25 8.414062 -11.25 L 1.414062 -11.25 C 1.214844 -11.25 1.113281 -11.148438 1.113281 -10.949219 L 1.113281 -0.300781 C 1.113281 -0.101562 1.214844 0 1.414062 0 Z M 3.808594 0 "/></g></g></g><g fill="#4f1964" fill-opacity="1"><g transform="translate(102.438981, 266.694124)"><g><path d="M 6.085938 0.300781 C 8.847656 0.300781 11.175781 -0.886719 11.175781 -3.792969 L 11.175781 -10.949219 C 11.175781 -11.148438 11.066406 -11.25 10.875 -11.25 L 8.402344 -11.25 C 8.203125 -11.25 8.101562 -11.148438 8.101562 -10.949219 L 8.101562 -4.59375 C 8.101562 -3.046875 7.410156 -2.402344 6.085938 -2.402344 C 4.78125 -2.402344 4.078125 -3.046875 4.078125 -4.59375 L 4.078125 -10.949219 C 4.078125 -11.148438 3.976562 -11.25 3.777344 -11.25 L 1.304688 -11.25 C 1.113281 -11.25 1.003906 -11.148438 1.003906 -10.949219 L 1.003906 -3.792969 C 1.003906 -0.886719 3.40625 0.300781 6.085938 0.300781 Z M 6.085938 0.300781 "/></g></g></g><g fill="#4f1964" fill-opacity="1"><g transform="translate(126.619396, 266.694124)"><g><path d="M 3.71875 0 C 3.917969 0 4.019531 -0.101562 4.019531 -0.300781 L 4.019531 -5.667969 L 10.246094 0 C 10.714844 0.433594 11.050781 0.242188 11.050781 -0.269531 L 11.050781 -10.949219 C 11.050781 -11.148438 10.949219 -11.25 10.75 -11.25 L 8.460938 -11.25 C 8.261719 -11.25 8.160156 -11.148438 8.160156 -10.949219 L 8.160156 -5.769531 L 1.859375 -11.324219 C 1.441406 -11.6875 1.128906 -11.507812 1.128906 -10.992188 L 1.128906 -0.300781 C 1.128906 -0.101562 1.230469 0 1.429688 0 Z M 3.71875 0 "/></g></g></g><g fill="#4f1964" fill-opacity="1"><g transform="translate(150.799811, 266.694124)"><g><path d="M 5.179688 0 C 9.449219 0 11.308594 -2.101562 11.308594 -5.609375 C 11.308594 -9.175781 9.390625 -11.25 5.179688 -11.25 L 1.414062 -11.25 C 1.214844 -11.25 1.113281 -11.148438 1.113281 -10.949219 L 1.113281 -0.300781 C 1.113281 -0.101562 1.214844 0 1.414062 0 Z M 4.136719 -8.699219 L 5.191406 -8.699219 C 7.300781 -8.699219 8.3125 -7.601562 8.3125 -5.652344 C 8.3125 -3.707031 7.300781 -2.546875 5.191406 -2.546875 L 4.136719 -2.546875 Z M 4.136719 -8.699219 "/></g></g></g><g fill="#4f1964" fill-opacity="1"><g transform="translate(174.79712, 266.694124)"><g><path d="M 13.902344 -11.25 C 13.753906 -11.25 13.621094 -11.160156 13.558594 -11.007812 L 11.207031 -5.574219 L 8.789062 -11.160156 C 8.730469 -11.308594 8.613281 -11.394531 8.445312 -11.394531 C 8.261719 -11.394531 8.160156 -11.308594 8.101562 -11.160156 L 5.800781 -5.582031 L 3.449219 -11.007812 C 3.390625 -11.160156 3.25 -11.25 3.105469 -11.25 L 0.460938 -11.25 C 0.242188 -11.25 0.132812 -11.101562 0.242188 -10.890625 L 5.398438 0 C 5.625 0.460938 6.011719 0.460938 6.210938 0 L 8.503906 -5.492188 L 10.804688 0 C 10.992188 0.460938 11.382812 0.460938 11.609375 0 L 16.773438 -10.890625 C 16.875 -11.101562 16.742188 -11.25 16.546875 -11.25 Z M 13.902344 -11.25 "/></g></g></g><g fill="#4f1964" fill-opacity="1"><g transform="translate(203.804194, 266.694124)"><g><path d="M 6.195312 -11.25 C 5.96875 -11.710938 5.609375 -11.710938 5.382812 -11.25 L 0.226562 -0.359375 C 0.132812 -0.144531 0.226562 0 0.445312 0 L 3.089844 0 C 3.25 0 3.375 -0.0859375 3.433594 -0.242188 L 3.800781 -1.1875 L 7.777344 -1.1875 L 8.144531 -0.242188 C 8.203125 -0.0859375 8.328125 0 8.488281 0 L 11.132812 0 C 11.351562 0 11.449219 -0.144531 11.351562 -0.359375 Z M 5.792969 -6.261719 L 6.898438 -3.433594 L 4.679688 -3.433594 Z M 5.792969 -6.261719 "/></g></g></g><g fill="#4f1964" fill-opacity="1"><g transform="translate(227.398672, 266.694124)"><g><path d="M 8.503906 -11.25 C 8.34375 -11.25 8.21875 -11.160156 8.160156 -11.007812 L 5.808594 -4.988281 L 3.449219 -11.007812 C 3.390625 -11.160156 3.265625 -11.25 3.105469 -11.25 L 0.460938 -11.25 C 0.242188 -11.25 0.132812 -11.101562 0.242188 -10.890625 L 5.398438 0 C 5.625 0.460938 5.984375 0.460938 6.210938 0 L 11.367188 -10.890625 C 11.476562 -11.101562 11.367188 -11.25 11.148438 -11.25 Z M 8.503906 -11.25 "/></g></g></g><g fill="#4f1964" fill-opacity="1"><g transform="translate(251.022445, 266.694124)"><g><path d="M 8.414062 0 C 8.613281 0 8.714844 -0.101562 8.714844 -0.300781 L 8.714844 -2.25 C 8.714844 -2.445312 8.613281 -2.546875 8.414062 -2.546875 L 4.109375 -2.546875 L 4.109375 -3.867188 L 7.828125 -3.867188 C 8.027344 -3.867188 8.128906 -3.976562 8.128906 -4.167969 L 8.128906 -5.96875 C 8.128906 -6.167969 8.027344 -6.269531 7.828125 -6.269531 L 4.109375 -6.269531 L 4.109375 -8.699219 L 8.414062 -8.699219 C 8.613281 -8.699219 8.714844 -8.804688 8.714844 -9 L 8.714844 -10.949219 C 8.714844 -11.148438 8.613281 -11.25 8.414062 -11.25 L 1.414062 -11.25 C 1.214844 -11.25 1.113281 -11.148438 1.113281 -10.949219 L 1.113281 -0.300781 C 1.113281 -0.101562 1.214844 0 1.414062 0 Z M 8.414062 0 "/></g></g></g><path stroke-linecap="round" transform="matrix(0.000000000000000046, 0.75, -0.75, 0.000000000000000046, 88.672199, 121.07337)" fill="none" stroke-linejoin="miter" d="M 3.501131 3.500432 L 156.501141 3.500432 " stroke="#4f1964" stroke-width="7" stroke-opacity="1" stroke-miterlimit="4"/><path stroke-linecap="round" transform="matrix(0.75, 0, 0, 0.75, 83.422192, 104.446107)" fill="none" stroke-linejoin="miter" d="M 3.499578 3.498941 L 156.499588 3.498941 " stroke="#b677b1" stroke-width="7" stroke-opacity="1" stroke-miterlimit="4"/><path stroke-linecap="round" transform="matrix(0.754591, -0.00286462, 0.00284717, 0.749995, 99.421323, 163.648583)" fill="none" stroke-linejoin="miter" d="M 3.502478 3.497584 L 55.155041 3.502163 " stroke="#a6b6f8" stroke-width="7" stroke-opacity="1" stroke-miterlimit="4"/><path stroke-linecap="round" transform="matrix(0.000000000000000046, 0.75, -0.75, 0.000000000000000046, 88.672199, 121.07337)" fill="none" stroke-linejoin="miter" d="M 3.501131 3.500432 L 156.501141 3.500432 " stroke="#4f1964" stroke-width="7" stroke-opacity="1" stroke-miterlimit="4"/><path stroke-linecap="round" transform="matrix(0.000000000000000046, 0.75, -0.75, 0.000000000000000046, 88.672199, 121.07337)" fill="none" stroke-linejoin="miter" d="M 3.501131 3.500432 L 156.501141 3.500432 " stroke="#4f1964" stroke-width="7" stroke-opacity="1" stroke-miterlimit="4"/><path stroke-linecap="round" transform="matrix(0.000000000000000046, 0.75, -0.75, 0.000000000000000046, 88.672199, 121.07337)" fill="none" stroke-linejoin="miter" d="M 3.501131 3.500432 L 156.501141 3.500432 " stroke="#ae53b1" stroke-width="7" stroke-opacity="1" stroke-miterlimit="4"/><path stroke-linecap="round" transform="matrix(0.266274, 0.705339, -0.701666, 0.264887, 130.267789, 56.95148)" fill="none" stroke-linejoin="miter" d="M 3.499665 3.502339 L 53.215459 3.501979 " stroke="#4f1964" stroke-width="7" stroke-opacity="1" stroke-miterlimit="4"/><path stroke-linecap="round" transform="matrix(0.24976, 0.704904, -0.706937, 0.25048, 155.265405, 120.199915)" fill="none" stroke-linejoin="miter" d="M 3.498456 3.501185 L 164.995524 3.500548 " stroke="#b67ca3" stroke-width="7" stroke-opacity="1" stroke-miterlimit="4"/><path stroke-linecap="round" transform="matrix(-0.173632, 0.728103, -0.729543, -0.173975, 238.464716, 68.565346)" fill="none" stroke-linejoin="miter" d="M 3.498514 3.49887 L 233.98309 3.49893 " stroke="#4f1964" stroke-width="7" stroke-opacity="1" stroke-miterlimit="4"/><path stroke-linecap="round" transform="matrix(0.242369, 0.709148, -0.709695, 0.242556, 220.974775, 138.637491)" fill="none" stroke-linejoin="miter" d="M 3.500675 3.499235 L 138.621354 3.498007 " stroke="#c5bac1" stroke-width="7" stroke-opacity="1" stroke-miterlimit="4"/><path stroke-linecap="round" transform="matrix(-0.239636, 0.710734, -0.710691, -0.239621, 316.279993, 57.790045)" fill="none" stroke-linejoin="miter" d="M 3.498487 3.501529 L 253.49247 3.499853 " stroke="#4f1964" stroke-width="7" stroke-opacity="1" stroke-miterlimit="4"/><path stroke-linecap="round" transform="matrix(0.266274, 0.705339, -0.701666, 0.264887, 240.639262, 149.112237)" fill="none" stroke-linejoin="miter" d="M 3.500571 3.497658 L 53.214535 3.50217 " stroke="#a6b6f8" stroke-width="7" stroke-opacity="1" stroke-miterlimit="4"/><path stroke-linecap="round" transform="matrix(-0.239236, 0.709091, -0.710644, -0.23976, 306.122034, 38.342839)" fill="none" stroke-linejoin="miter" d="M 3.498824 3.501212 L 210.977463 3.50184 " stroke="#a6b6f8" stroke-width="7" stroke-opacity="1" stroke-miterlimit="4"/><path stroke-linecap="round" transform="matrix(0.250254, 0.705245, -0.706819, 0.250813, 168.857485, 120.246671)" fill="none" stroke-linejoin="miter" d="M 3.500346 3.502523 L 80.691356 3.498392 " stroke="#cfc0c7" stroke-width="7" stroke-opacity="1" stroke-miterlimit="4"/><path stroke-linecap="round" transform="matrix(0.745219, -0.00683688, 0.00688045, 0.749968, 86.02311, 178.448427)" fill="none" stroke-linejoin="miter" d="M 3.501046 3.501869 L 72.990929 3.499911 " stroke="#4f1964" stroke-width="7" stroke-opacity="1" stroke-miterlimit="4"/></svg>